<mxfile host="app.diagrams.net" agent="Mozilla/5.0 (Windows NT 10.0; Win64; x64; rv:142.0) Gecko/20100101 Firefox/142.0" version="28.1.0">
  <diagram name="Page-1" id="gUdLvVfpFb3FKqksOTgF">
    <mxGraphModel dx="2107" dy="938" grid="1" gridSize="10" guides="1" tooltips="1" connect="1" arrows="1" fold="1" page="1" pageScale="1" pageWidth="850" pageHeight="1100" math="0" shadow="0">
      <root>
        <mxCell id="0" />
        <mxCell id="1" parent="0" />
        <mxCell id="d9NDKi-DIBFC-3d4ZJFd-16" style="edgeStyle=orthogonalEdgeStyle;rounded=0;orthogonalLoop=1;jettySize=auto;html=1;" edge="1" parent="1" source="d9NDKi-DIBFC-3d4ZJFd-1" target="d9NDKi-DIBFC-3d4ZJFd-2">
          <mxGeometry relative="1" as="geometry" />
        </mxCell>
        <mxCell id="d9NDKi-DIBFC-3d4ZJFd-26" style="edgeStyle=orthogonalEdgeStyle;rounded=0;orthogonalLoop=1;jettySize=auto;html=1;" edge="1" parent="1" source="d9NDKi-DIBFC-3d4ZJFd-1" target="d9NDKi-DIBFC-3d4ZJFd-3">
          <mxGeometry relative="1" as="geometry" />
        </mxCell>
        <mxCell id="d9NDKi-DIBFC-3d4ZJFd-1" value="Wektory ataku" style="rounded=1;whiteSpace=wrap;html=1;fillColor=#a20025;fontColor=#ffffff;strokeColor=#6F0000;fontSize=17;" vertex="1" parent="1">
          <mxGeometry x="220" y="90" width="275" height="140" as="geometry" />
        </mxCell>
        <mxCell id="d9NDKi-DIBFC-3d4ZJFd-5" value="" style="edgeStyle=orthogonalEdgeStyle;rounded=0;orthogonalLoop=1;jettySize=auto;html=1;" edge="1" parent="1" source="d9NDKi-DIBFC-3d4ZJFd-2" target="d9NDKi-DIBFC-3d4ZJFd-4">
          <mxGeometry relative="1" as="geometry" />
        </mxCell>
        <mxCell id="d9NDKi-DIBFC-3d4ZJFd-7" value="" style="edgeStyle=orthogonalEdgeStyle;rounded=0;orthogonalLoop=1;jettySize=auto;html=1;" edge="1" parent="1" source="d9NDKi-DIBFC-3d4ZJFd-2" target="d9NDKi-DIBFC-3d4ZJFd-6">
          <mxGeometry relative="1" as="geometry" />
        </mxCell>
        <mxCell id="d9NDKi-DIBFC-3d4ZJFd-10" style="edgeStyle=orthogonalEdgeStyle;rounded=0;orthogonalLoop=1;jettySize=auto;html=1;exitX=0;exitY=1;exitDx=0;exitDy=0;" edge="1" parent="1" source="d9NDKi-DIBFC-3d4ZJFd-2" target="d9NDKi-DIBFC-3d4ZJFd-8">
          <mxGeometry relative="1" as="geometry" />
        </mxCell>
        <mxCell id="d9NDKi-DIBFC-3d4ZJFd-12" style="edgeStyle=orthogonalEdgeStyle;rounded=0;orthogonalLoop=1;jettySize=auto;html=1;exitX=1;exitY=1;exitDx=0;exitDy=0;" edge="1" parent="1" source="d9NDKi-DIBFC-3d4ZJFd-2" target="d9NDKi-DIBFC-3d4ZJFd-11">
          <mxGeometry relative="1" as="geometry" />
        </mxCell>
        <mxCell id="d9NDKi-DIBFC-3d4ZJFd-15" style="edgeStyle=orthogonalEdgeStyle;rounded=0;orthogonalLoop=1;jettySize=auto;html=1;exitX=1;exitY=0.5;exitDx=0;exitDy=0;" edge="1" parent="1" source="d9NDKi-DIBFC-3d4ZJFd-2" target="d9NDKi-DIBFC-3d4ZJFd-14">
          <mxGeometry relative="1" as="geometry" />
        </mxCell>
        <mxCell id="d9NDKi-DIBFC-3d4ZJFd-2" value="Cel" style="ellipse;whiteSpace=wrap;html=1;fillColor=#1ba1e2;fontColor=#ffffff;strokeColor=#006EAF;fontSize=17;" vertex="1" parent="1">
          <mxGeometry x="-30" y="350" width="220" height="120" as="geometry" />
        </mxCell>
        <mxCell id="d9NDKi-DIBFC-3d4ZJFd-18" style="edgeStyle=orthogonalEdgeStyle;rounded=0;orthogonalLoop=1;jettySize=auto;html=1;exitX=0;exitY=0.5;exitDx=0;exitDy=0;" edge="1" parent="1" source="d9NDKi-DIBFC-3d4ZJFd-3" target="d9NDKi-DIBFC-3d4ZJFd-17">
          <mxGeometry relative="1" as="geometry" />
        </mxCell>
        <mxCell id="d9NDKi-DIBFC-3d4ZJFd-21" style="edgeStyle=orthogonalEdgeStyle;rounded=0;orthogonalLoop=1;jettySize=auto;html=1;exitX=0;exitY=1;exitDx=0;exitDy=0;" edge="1" parent="1" source="d9NDKi-DIBFC-3d4ZJFd-3" target="d9NDKi-DIBFC-3d4ZJFd-20">
          <mxGeometry relative="1" as="geometry" />
        </mxCell>
        <mxCell id="d9NDKi-DIBFC-3d4ZJFd-23" value="" style="edgeStyle=orthogonalEdgeStyle;rounded=0;orthogonalLoop=1;jettySize=auto;html=1;" edge="1" parent="1" source="d9NDKi-DIBFC-3d4ZJFd-3" target="d9NDKi-DIBFC-3d4ZJFd-22">
          <mxGeometry relative="1" as="geometry" />
        </mxCell>
        <mxCell id="d9NDKi-DIBFC-3d4ZJFd-25" style="edgeStyle=orthogonalEdgeStyle;rounded=0;orthogonalLoop=1;jettySize=auto;html=1;" edge="1" parent="1" source="d9NDKi-DIBFC-3d4ZJFd-3" target="d9NDKi-DIBFC-3d4ZJFd-24">
          <mxGeometry relative="1" as="geometry" />
        </mxCell>
        <mxCell id="d9NDKi-DIBFC-3d4ZJFd-3" value="Przywileje napastnika" style="ellipse;whiteSpace=wrap;html=1;fillColor=#1ba1e2;fontColor=#ffffff;strokeColor=#006EAF;fontSize=17;" vertex="1" parent="1">
          <mxGeometry x="550" y="350" width="220" height="120" as="geometry" />
        </mxCell>
        <mxCell id="d9NDKi-DIBFC-3d4ZJFd-4" value="Maszyna wirtualna" style="ellipse;whiteSpace=wrap;html=1;fillColor=#647687;fontColor=#ffffff;strokeColor=#314354;" vertex="1" parent="1">
          <mxGeometry x="-140" y="370" width="80" height="80" as="geometry" />
        </mxCell>
        <mxCell id="d9NDKi-DIBFC-3d4ZJFd-6" value="Hipernadzorca" style="ellipse;whiteSpace=wrap;html=1;fillColor=#647687;fontColor=#ffffff;strokeColor=#314354;" vertex="1" parent="1">
          <mxGeometry x="40" y="510" width="80" height="80" as="geometry" />
        </mxCell>
        <mxCell id="d9NDKi-DIBFC-3d4ZJFd-8" value="Interfejsy zarządzania" style="ellipse;whiteSpace=wrap;html=1;fillColor=#647687;fontColor=#ffffff;strokeColor=#314354;" vertex="1" parent="1">
          <mxGeometry x="-90" y="510" width="80" height="80" as="geometry" />
        </mxCell>
        <mxCell id="d9NDKi-DIBFC-3d4ZJFd-11" value="Sieć" style="ellipse;whiteSpace=wrap;html=1;fillColor=#647687;fontColor=#ffffff;strokeColor=#314354;" vertex="1" parent="1">
          <mxGeometry x="150" y="510" width="80" height="80" as="geometry" />
        </mxCell>
        <mxCell id="d9NDKi-DIBFC-3d4ZJFd-14" value="Pamięć" style="ellipse;whiteSpace=wrap;html=1;fillColor=#647687;fontColor=#ffffff;strokeColor=#314354;" vertex="1" parent="1">
          <mxGeometry x="220" y="370" width="80" height="80" as="geometry" />
        </mxCell>
        <mxCell id="d9NDKi-DIBFC-3d4ZJFd-17" value="Zewnętrzny bez dostępu, np. podsłuchiwanie" style="ellipse;whiteSpace=wrap;html=1;fillColor=#647687;fontColor=#ffffff;strokeColor=#314354;" vertex="1" parent="1">
          <mxGeometry x="397.5" y="355" width="120" height="110" as="geometry" />
        </mxCell>
        <mxCell id="d9NDKi-DIBFC-3d4ZJFd-20" value="Uprzywilejowany w gościu" style="ellipse;whiteSpace=wrap;html=1;fillColor=#647687;fontColor=#ffffff;strokeColor=#314354;" vertex="1" parent="1">
          <mxGeometry x="440" y="520" width="120" height="110" as="geometry" />
        </mxCell>
        <mxCell id="d9NDKi-DIBFC-3d4ZJFd-22" value="Uprzywilejowany w infrastrukturze" style="ellipse;whiteSpace=wrap;html=1;fillColor=#647687;fontColor=#ffffff;strokeColor=#314354;" vertex="1" parent="1">
          <mxGeometry x="600" y="520" width="120" height="110" as="geometry" />
        </mxCell>
        <mxCell id="d9NDKi-DIBFC-3d4ZJFd-24" value="Pełny dostęp administracyjny" style="ellipse;whiteSpace=wrap;html=1;fillColor=#647687;fontColor=#ffffff;strokeColor=#314354;" vertex="1" parent="1">
          <mxGeometry x="810" y="450" width="120" height="110" as="geometry" />
        </mxCell>
      </root>
    </mxGraphModel>
  </diagram>
</mxfile>
